<?xml version="1.0" standalone="no"?>
<!DOCTYPE svg PUBLIC "-//W3C//DTD SVG 20010904//EN"
 "http://www.w3.org/TR/2001/REC-SVG-20010904/DTD/svg10.dtd">
<svg version="1.0" xmlns="http://www.w3.org/2000/svg"
 width="566.000000pt" height="168.000000pt" viewBox="0 0 566.000000 168.000000"
 preserveAspectRatio="xMidYMid meet">

<g transform="translate(0.000000,168.000000) scale(0.100000,-0.100000)"
fill="#000000" stroke="none">
<path d="M145 1651 c-51 -23 -111 -89 -125 -138 -8 -27 -10 -235 -8 -700 l3
-661 30 -43 c36 -51 82 -85 135 -99 25 -7 932 -9 2677 -8 l2640 3 49 30 c30
19 60 49 79 79 l30 49 3 659 c3 656 2 658 -19 708 -25 58 -86 115 -138 130
-23 6 -963 10 -2676 10 -2532 0 -2642 -1 -2680 -19z m899 -334 c35 -36 48
-207 15 -207 -5 0 -9 30 -9 68 0 110 -34 145 -117 123 -77 -21 -87 -37 -93
-142 -3 -61 -9 -94 -17 -97 -19 -6 -18 170 2 207 32 63 173 94 219 48z m113
-55 c30 -19 46 -122 18 -122 -11 0 -15 11 -15 38 0 43 -14 62 -47 62 -23 0
-30 10 -16 23 9 9 45 9 60 -1z m2350 -8 c2 -5 -7 -14 -19 -19 -32 -14 -38 -65
-9 -65 12 0 21 -7 21 -15 0 -8 -9 -15 -20 -15 -18 0 -20 -7 -20 -80 0 -64 -3
-80 -15 -80 -12 0 -15 16 -15 80 0 64 -3 80 -15 80 -8 0 -15 7 -15 15 0 8 7
15 15 15 10 0 15 10 15 28 0 16 6 35 13 44 20 26 57 33 64 12z m-837 -134 c0
-118 -2 -140 -15 -140 -13 0 -15 22 -15 140 0 118 2 140 15 140 13 0 15 -22
15 -140z m610 0 c0 -118 -2 -140 -15 -140 -8 0 -15 4 -15 9 0 5 -14 3 -31 -6
-24 -12 -36 -13 -58 -3 -69 28 -68 155 2 188 23 11 32 11 57 -2 l30 -14 0 54
c0 41 4 54 15 54 13 0 15 -22 15 -140z m-1437 119 c51 -14 77 -57 77 -127 0
-46 -4 -57 -34 -89 -31 -34 -38 -37 -100 -41 l-66 -4 0 136 0 136 43 0 c23 0
59 -5 80 -11z m-823 -12 c0 -7 -9 -18 -20 -24 -13 -9 -21 -29 -26 -63 -8 -64
-24 -65 -24 -1 0 34 6 56 21 75 21 27 49 35 49 13z m1088 -79 c30 -29 31 -104
2 -141 -43 -55 -128 -39 -150 28 -34 104 71 184 148 113z m456 11 c24 -19 26
-26 26 -100 0 -64 -3 -79 -15 -79 -12 0 -15 14 -15 69 0 50 -4 74 -16 85 -20
21 -30 20 -54 -4 -16 -16 -20 -33 -20 -85 0 -51 -3 -65 -15 -65 -12 0 -15 17
-15 95 0 78 3 95 15 95 8 0 15 -4 15 -9 0 -6 12 -3 28 5 35 18 34 18 66 -7z
m275 10 c105 -37 59 -218 -50 -194 -88 19 -93 181 -6 198 12 2 22 5 23 6 1 0
15 -4 33 -10z m194 0 c33 -18 37 -28 37 -111 0 -63 -3 -78 -15 -78 -8 0 -15 4
-15 10 0 5 -13 2 -29 -7 -27 -16 -30 -16 -55 0 -20 13 -26 26 -26 52 0 38 13
49 73 60 39 8 47 24 22 45 -14 12 -29 11 -67 -5 -13 -5 -18 -2 -18 9 0 13 11
19 68 35 2 1 13 -4 25 -10z m766 -26 c19 -22 22 -34 18 -76 -6 -64 -32 -92
-88 -92 -33 0 -46 6 -65 28 -43 50 -26 138 31 163 39 18 74 10 104 -23z m185
16 c14 -11 26 -16 26 -11 0 17 49 32 74 23 31 -12 36 -29 36 -117 0 -58 -3
-74 -15 -74 -11 0 -15 17 -17 76 -2 59 -7 79 -20 88 -13 8 -22 6 -37 -8 -17
-16 -21 -31 -21 -88 0 -54 -3 -68 -15 -68 -12 0 -15 14 -15 64 0 73 -21 113
-53 100 -25 -9 -37 -45 -37 -110 0 -41 -4 -54 -15 -54 -12 0 -15 17 -15 95 0
78 3 95 15 95 8 0 15 -4 15 -9 0 -6 12 -3 28 5 35 18 34 18 66 -7z m-1793 -19
c4 -14 13 -45 20 -70 l12 -45 22 70 c29 96 47 97 70 4 19 -77 25 -76 45 9 11
50 25 71 37 58 3 -3 -4 -44 -17 -92 -32 -120 -57 -125 -81 -16 -7 28 -16 52
-21 52 -4 0 -8 -5 -8 -11 0 -33 -33 -119 -46 -119 -16 0 -23 15 -52 118 -18
65 -19 73 -5 70 9 -2 20 -14 24 -28z m1369 18 c0 -9 3 -9 12 0 17 17 58 15 58
-3 0 -9 -9 -15 -24 -15 -29 0 -46 -40 -46 -111 0 -37 -4 -49 -15 -49 -12 0
-15 17 -15 95 0 78 3 95 15 95 8 0 15 -5 15 -12z m-2177 -47 l67 -25 0 -361 0
-360 -69 -26 -69 -26 -323 68 c-178 38 -334 71 -346 74 l-23 5 0 265 0 265 27
7 c56 14 658 140 663 139 3 0 36 -12 73 -25z m1467 -492 l0 -210 -22 3 c-13 2
-22 9 -20 16 3 15 3 16 -43 -8 -87 -44 -165 18 -165 130 0 89 51 150 125 150
26 0 48 -6 55 -15 21 -26 25 -17 22 50 -4 78 1 95 28 95 19 0 20 -6 20 -211z
m-590 186 c17 -20 5 -45 -20 -45 -11 0 -23 7 -26 15 -6 15 11 45 26 45 4 0 13
-7 20 -15z m1819 9 c26 -6 31 -11 31 -36 0 -25 -2 -27 -19 -18 -32 17 -86 12
-105 -9 -29 -32 -17 -71 34 -107 89 -64 110 -89 110 -133 0 -27 -7 -48 -22
-66 -25 -28 -88 -47 -128 -39 -57 13 -60 15 -60 45 0 29 0 29 30 14 60 -31
130 -12 130 36 0 34 -17 55 -70 89 -67 43 -90 74 -90 120 0 75 71 121 159 104z
m-2293 -169 c23 -88 44 -153 47 -145 3 8 20 67 37 130 50 184 49 182 73 178
19 -3 27 -22 62 -155 22 -84 42 -153 45 -153 3 0 23 70 44 155 36 146 39 155
62 155 13 0 24 -3 24 -6 0 -4 -23 -94 -52 -200 -51 -191 -52 -194 -78 -194
-26 0 -28 4 -65 143 -21 78 -40 146 -43 151 -3 5 -24 -58 -46 -140 -39 -141
-42 -149 -67 -152 -26 -3 -27 0 -78 184 -29 103 -55 193 -58 201 -4 11 1 14
22 11 28 -3 30 -7 71 -163z m2454 96 c0 -37 2 -40 32 -43 47 -4 51 -35 6 -40
l-33 -3 -3 -80 c-4 -109 1 -125 38 -125 23 0 30 -5 30 -19 0 -37 -89 -31 -106
7 -4 9 -8 62 -10 117 -3 91 -5 100 -24 103 -30 5 -27 42 4 42 20 0 22 4 18 27
-3 18 1 30 13 40 29 20 35 16 35 -26z m-1980 -186 c0 -138 -1 -145 -20 -145
-19 0 -20 7 -20 145 0 138 1 145 20 145 19 0 20 -7 20 -145z m110 124 l0 -20
26 20 c28 22 83 28 114 11 29 -15 40 -65 40 -177 0 -103 0 -104 -22 -101 -22
3 -23 8 -28 116 -5 121 -10 132 -62 132 -17 0 -34 -9 -47 -26 -18 -23 -21 -41
-21 -126 0 -97 0 -99 -22 -96 -22 3 -23 7 -26 132 -1 72 0 136 2 143 9 22 46
16 46 -8z m745 -1 c75 -59 71 -194 -7 -251 -37 -27 -109 -27 -146 0 -83 60
-79 211 7 258 41 22 113 19 146 -7z m125 -20 c7 -24 19 -70 28 -103 8 -33 18
-63 21 -67 3 -4 19 40 35 99 43 154 61 153 105 -8 16 -57 31 -97 35 -89 3 8
16 58 29 110 20 81 26 95 45 98 12 2 22 0 22 -5 0 -4 -17 -69 -39 -143 -35
-125 -40 -135 -62 -135 -22 0 -27 9 -53 104 -33 116 -30 117 -71 -21 -23 -76
-29 -88 -48 -88 -20 0 -26 15 -63 140 -22 77 -39 142 -36 145 3 3 13 5 23 5
13 0 22 -12 29 -42z m488 16 c3 -18 -2 -20 -45 -20 -47 1 -48 0 -48 -28 0 -25
8 -34 45 -56 60 -35 78 -71 57 -116 -30 -61 -148 -69 -155 -10 -3 25 -1 26 17
17 11 -6 35 -11 55 -11 26 0 36 5 41 20 8 26 -8 46 -56 71 -64 32 -78 90 -34
135 21 21 33 25 73 22 39 -2 48 -7 50 -24z m830 1 c62 -52 63 -175 4 -235 -59
-58 -171 -40 -205 33 -33 69 -16 163 38 205 41 32 123 31 163 -3z m134 3 c-4
-23 3 -23 28 2 11 11 31 20 45 20 20 0 25 -5 25 -24 0 -20 -5 -24 -26 -23 -47
4 -68 -39 -71 -146 -2 -84 -4 -92 -23 -95 -19 -3 -20 1 -20 143 0 146 0 146
23 143 15 -2 21 -9 19 -20z m317 1 c28 -26 41 -60 41 -105 l0 -34 -96 0 c-84
0 -95 -2 -90 -16 3 -9 6 -20 6 -25 0 -5 9 -18 20 -29 22 -22 88 -27 121 -9 18
9 20 8 17 -13 -2 -17 -14 -26 -43 -36 -52 -17 -104 -3 -139 39 -22 26 -26 40
-26 97 0 102 41 151 126 152 27 0 47 -7 63 -21z"/>
<path d="M3166 1134 c-51 -51 -17 -148 45 -129 40 13 52 92 19 125 -24 24 -43
25 -64 4z"/>
<path d="M1750 1115 l0 -105 39 0 c57 0 91 32 98 91 3 27 0 55 -7 68 -13 25
-66 51 -105 51 l-25 0 0 -105z"/>
<path d="M2012 1134 c-17 -12 -22 -25 -22 -59 0 -34 5 -47 22 -59 30 -21 44
-20 68 4 38 38 14 130 -33 130 -7 0 -23 -7 -35 -16z"/>
<path d="M2770 1130 c-40 -40 -14 -130 38 -130 51 0 74 104 30 134 -30 21 -44
20 -68 -4z"/>
<path d="M2972 1058 c-35 -35 12 -75 49 -42 29 26 25 54 -9 54 -15 0 -33 -5
-40 -12z"/>
<path d="M3695 1125 c-52 -51 -10 -141 56 -120 42 14 50 113 9 135 -28 15 -38
13 -65 -15z"/>
<path d="M1015 906 l-70 -11 -3 -73 -3 -72 96 0 95 0 0 85 c0 97 10 91 -115
71z"/>
<path d="M875 885 c-5 -2 -31 -6 -57 -10 l-48 -6 0 -60 0 -59 75 0 75 0 0 70
c0 71 -5 79 -45 65z"/>
<path d="M770 661 l0 -69 58 -6 c31 -4 65 -9 75 -12 15 -5 17 3 17 75 l0 81
-75 0 -75 0 0 -69z"/>
<path d="M947 723 c-4 -3 -7 -39 -7 -79 l0 -72 73 -12 c39 -6 82 -13 95 -16
22 -4 22 -3 22 91 l0 95 -88 0 c-49 0 -92 -3 -95 -7z"/>
<path d="M2675 635 c-20 -19 -25 -34 -25 -75 0 -51 12 -88 34 -102 23 -16 75
-8 96 14 29 31 29 139 0 168 -28 28 -75 26 -105 -5z"/>
<path d="M2992 653 c-22 -9 -42 -60 -42 -108 0 -61 32 -95 89 -95 55 0 81 34
81 107 0 44 -5 58 -25 78 -23 24 -69 32 -103 18z"/>
<path d="M4415 635 c-20 -20 -25 -34 -25 -78 0 -75 25 -107 84 -107 29 0 48 6
59 18 36 39 33 136 -4 173 -28 28 -84 25 -114 -6z"/>
<path d="M4890 638 c-11 -12 -20 -30 -20 -40 0 -16 9 -18 65 -18 62 0 65 1 65
23 0 53 -72 76 -110 35z"/>
</g>
</svg>
